<svg width="30" height="30" viewBox="0 0 30 30" fill="none" xmlns="http://www.w3.org/2000/svg">
<g clip-path="url(#clip0_3102_119)">
<path d="M8.75 22.5C7.375 22.5 6.2625 23.625 6.2625 25C6.2625 26.375 7.375 27.5 8.75 27.5C10.125 27.5 11.25 26.375 11.25 25C11.25 23.625 10.125 22.5 8.75 22.5ZM1.25 2.5V5H3.75L8.25 14.4875L6.5625 17.55C6.3625 17.9 6.25 18.3125 6.25 18.75C6.25 20.125 7.375 21.25 8.75 21.25H23.75V18.75H9.275C9.1 18.75 8.9625 18.6125 8.9625 18.4375L9 18.2875L10.125 16.25H19.4375C20.375 16.25 21.2 15.7375 21.625 14.9625L26.1 6.85C26.2 6.675 26.25 6.4625 26.25 6.25C26.25 5.5625 25.6875 5 25 5H6.5125L5.3375 2.5H1.25ZM21.25 22.5C19.875 22.5 18.7625 23.625 18.7625 25C18.7625 26.375 19.875 27.5 21.25 27.5C22.625 27.5 23.75 26.375 23.75 25C23.75 23.625 22.625 22.5 21.25 22.5Z" fill="#2D2D2D"/>
<circle cx="24" cy="7" r="7" fill="white"/>
<path d="M26.867 10.39C27.0537 10.39 27.2007 10.4437 27.308 10.551C27.42 10.6537 27.476 10.7913 27.476 10.964V12H20.532V11.426C20.532 11.3093 20.5553 11.188 20.602 11.062C20.6533 10.9313 20.7327 10.8147 20.84 10.712L23.913 7.632C24.1697 7.37067 24.3983 7.121 24.599 6.883C24.8043 6.645 24.9747 6.40933 25.11 6.176C25.2453 5.94267 25.348 5.707 25.418 5.469C25.4927 5.22633 25.53 4.972 25.53 4.706C25.53 4.46333 25.495 4.251 25.425 4.069C25.355 3.88233 25.2547 3.726 25.124 3.6C24.998 3.474 24.844 3.38067 24.662 3.32C24.4847 3.25467 24.284 3.222 24.06 3.222C23.8547 3.222 23.6633 3.25233 23.486 3.313C23.3133 3.369 23.1593 3.45067 23.024 3.558C22.8887 3.66067 22.7743 3.782 22.681 3.922C22.5877 4.062 22.5177 4.216 22.471 4.384C22.3917 4.59867 22.289 4.741 22.163 4.811C22.037 4.881 21.855 4.89733 21.617 4.86L20.707 4.699C20.777 4.21367 20.9123 3.789 21.113 3.425C21.3137 3.05633 21.5633 2.75067 21.862 2.508C22.1653 2.26067 22.5107 2.07633 22.898 1.955C23.29 1.829 23.71 1.766 24.158 1.766C24.6247 1.766 25.0517 1.836 25.439 1.976C25.8263 2.11133 26.1577 2.305 26.433 2.557C26.7083 2.809 26.923 3.11233 27.077 3.467C27.231 3.82167 27.308 4.216 27.308 4.65C27.308 5.02333 27.252 5.36867 27.14 5.686C27.0327 6.00333 26.8857 6.30667 26.699 6.596C26.517 6.88533 26.3023 7.16533 26.055 7.436C25.8077 7.70667 25.5487 7.982 25.278 8.262L22.996 10.593C23.2153 10.5277 23.4323 10.4787 23.647 10.446C23.8663 10.4087 24.074 10.39 24.27 10.39H26.867Z" fill="#3670C7"/>
</g>
<defs>
<clipPath id="clip0_3102_119">
<rect width="30" height="30" fill="white"/>
</clipPath>
</defs>
</svg>
